<?xml version="1.0" standalone="no"?>
<!DOCTYPE svg PUBLIC "-//W3C//DTD SVG 20010904//EN"
 "http://www.w3.org/TR/2001/REC-SVG-20010904/DTD/svg10.dtd">
<svg version="1.0" xmlns="http://www.w3.org/2000/svg"
 width="700.000000pt" height="700.000000pt" viewBox="0 0 700.000000 700.000000"
 preserveAspectRatio="xMidYMid meet">
<metadata>
Created by potrace 1.11, written by Peter Selinger 2001-2013
</metadata>
<g transform="translate(0.000000,700.000000) scale(0.100000,-0.100000)"
fill="#000000" stroke="none">
<path d="M201 6479 c-87 -26 -158 -98 -186 -185 -13 -43 -16 -74 -10 -146 3
-51 8 -94 9 -97 2 -3 7 -35 10 -71 4 -36 11 -81 16 -100 4 -19 11 -53 14 -75
7 -56 23 -130 40 -197 9 -31 17 -67 20 -80 2 -12 17 -63 31 -113 15 -49 32
-106 37 -125 17 -58 95 -263 137 -358 295 -670 753 -1177 1364 -1510 161 -88
467 -217 561 -237 11 -3 40 -11 65 -19 45 -15 188 -50 246 -61 17 -3 57 -11
90 -16 33 -6 67 -12 75 -14 8 -2 22 -4 31 -4 13 -1 16 -21 18 -128 1 -71 4
-148 6 -173 2 -25 6 -83 10 -130 3 -47 8 -101 11 -120 2 -19 6 -60 9 -90 3
-30 8 -66 10 -80 3 -14 7 -43 11 -65 3 -22 12 -78 21 -125 8 -47 17 -96 19
-110 10 -59 48 -223 75 -320 88 -320 261 -692 476 -1028 62 -96 100 -134 163
-165 l45 -21 1570 -1 c1503 0 1572 1 1618 18 188 73 243 315 104 458 -38 39
-39 39 -212 115 -211 92 -455 218 -680 352 -100 59 -438 279 -475 308 -8 7
-80 61 -160 120 -80 59 -147 111 -150 115 -3 4 -45 39 -94 77 -49 39 -118 97
-154 129 -37 32 -107 94 -157 138 -108 95 -424 410 -517 516 -84 95 -218 261
-218 270 0 4 15 10 33 14 61 13 315 116 457 185 294 143 662 377 920 585 391
313 693 798 839 1347 42 156 74 317 87 433 3 33 8 62 9 65 6 9 18 218 19 335
3 182 -17 248 -97 322 -138 127 -360 79 -441 -94 -34 -74 -41 -85 -98 -159
-91 -118 -256 -250 -393 -314 -72 -34 -232 -81 -325 -95 -19 -3 -46 -7 -60
-10 -14 -2 -45 -7 -70 -10 -25 -3 -54 -7 -66 -9 -12 -2 -45 -7 -75 -11 -30 -3
-65 -8 -79 -10 -14 -2 -59 -7 -100 -10 -41 -4 -83 -9 -92 -10 -9 -2 -48 -6
-85 -10 -37 -3 -85 -8 -105 -10 -77 -10 -124 -16 -148 -20 -14 -2 -50 -7 -80
-11 -30 -4 -64 -8 -75 -10 -11 -2 -34 -5 -52 -8 -62 -9 -206 -46 -281 -72
-148 -51 -379 -177 -476 -260 -22 -19 -44 -34 -50 -34 -6 0 -33 17 -61 38 -77
58 -331 224 -420 275 -261 149 -460 196 -895 212 -503 19 -614 30 -775 76
-149 43 -309 158 -410 294 -17 22 -33 42 -37 45 -4 3 -30 46 -58 95 -63 109
-90 139 -155 172 -56 29 -149 39 -204 22z"/>
</g>
</svg>
