<svg height="640" viewBox="-40 0 480 480" width="640" xmlns="http://www.w3.org/2000/svg"><path d="M344 160h-72v16h80a8 8 0 0 0 8-8V48a8 8 0 0 0-8-8h-88v16h80zm0 0M272 192h88v16h-88zm0 0M272 224h88v16h-88zm0 0M352 256h-80v16h72v16h-72v16h80a8 8 0 0 0 8-8v-32a8 8 0 0 0-8-8zm0 0M272 320h48v16h-48zm0 0M336 320h24v16h-24zm0 0M272 352h88v16h-88zm0 0"/><path d="M0 80v392a8 8 0 0 0 8 8h240a8 8 0 0 0 8-8v-64h136a8 8 0 0 0 8-8V8a8 8 0 0 0-8-8H152c-.145 0-.273.07-.414.078-.777.043-1.54.2-2.266.465-.207.074-.418.113-.61.2-.19.089-.198.058-.284.097a7.876 7.876 0 0 0-1.969 1.426c-.129.125-.219.277-.336.414a7.584 7.584 0 0 0-1.25 1.847 5.93 5.93 0 0 0-.312.703A7.921 7.921 0 0 0 144 8v64H8a8 8 0 0 0-8 8zm384-64v376H256V80a7.832 7.832 0 0 0-3.281-6.29l.082-.108L176 16zm-224 8l64 48h-64zM16 88h224v376H16zm0 0"/><path d="M208 112H48a8 8 0 0 0-8 8v152a8 8 0 0 0 8 8h160a8 8 0 0 0 8-8V120a8 8 0 0 0-8-8zm-8 152H56v-19.719l40-26.68 43.559 29.04a8.004 8.004 0 0 0 8 .504l28.441-14.2 24 12zm0-36.945l-20.426-10.215a7.992 7.992 0 0 0-7.148 0l-27.852 13.93-44.133-29.426a8.007 8.007 0 0 0-8.882 0L56 225.054V128h144zm0 0"/><path d="M152 208c17.672 0 32-14.328 32-32s-14.328-32-32-32-32 14.328-32 32 14.328 32 32 32zm0-48c8.836 0 16 7.164 16 16s-7.164 16-16 16-16-7.164-16-16 7.164-16 16-16zm0 0M120 392h96v16h-96zm0 0M40 392h64v16H40zm0 0M48 376h80a8 8 0 0 0 8-8v-64a8 8 0 0 0-8-8H48a8 8 0 0 0-8 8v64a8 8 0 0 0 8 8zm8-64h64v48H56zm0 0M152 296h64v16h-64zm0 0M152 328h32v16h-32zm0 0M200 328h16v16h-16zm0 0M152 360h64v16h-64zm0 0M40 424h120v16H40zm0 0M176 424h40v16h-40zm0 0"/></svg>